<svg width="32" height="32" viewBox="0 0 32 32" fill="none" xmlns="http://www.w3.org/2000/svg">
<rect width="32" height="32" fill="white"/>
<path d="M5 32V0H16.0618C18.2659 0 20.0838 0.385417 21.5155 1.15625C22.9471 1.91667 24.0131 2.94271 24.7135 4.23438C25.4139 5.51562 25.764 6.9375 25.764 8.5C25.764 9.875 25.522 11.0104 25.0379 11.9063C24.5641 12.8021 23.9359 13.5104 23.1531 14.0313C22.3806 14.5521 21.5412 14.9375 20.6348 15.1875V15.5C21.603 15.5625 22.5763 15.9063 23.5548 16.5313C24.5332 17.1563 25.3521 18.0521 26.0112 19.2188C26.6704 20.3854 27 21.8125 27 23.5C27 25.1042 26.6395 26.5469 25.9185 27.8281C25.1976 29.1094 24.0595 30.125 22.5042 30.875C20.949 31.625 18.9251 32 16.4326 32H5ZM8.83146 28.5625H16.4326C18.9354 28.5625 20.7121 28.0729 21.7626 27.0938C22.8235 26.1042 23.3539 24.9063 23.3539 23.5C23.3539 22.4167 23.081 21.4167 22.5351 20.5C21.9892 19.5729 21.2116 18.8333 20.2022 18.2813C19.1929 17.7188 17.9981 17.4375 16.618 17.4375H8.83146V28.5625ZM8.83146 14.0625H15.9382C17.0918 14.0625 18.132 13.8333 19.059 13.375C19.9963 12.9167 20.7378 12.2708 21.2837 11.4375C21.8399 10.6042 22.118 9.625 22.118 8.5C22.118 7.09375 21.6339 5.90104 20.6657 4.92188C19.6976 3.93229 18.1629 3.4375 16.0618 3.4375H8.83146V14.0625Z" fill="#7C3AED"/>
</svg>
